<svg width="32" height="32" viewBox="0 0 32 32" fill="none" xmlns="http://www.w3.org/2000/svg">
  <defs>
    <linearGradient id="gradient" x1="0%" y1="0%" x2="100%" y2="100%">
      <stop offset="0%" style="stop-color:#3b82f6;stop-opacity:1" />
      <stop offset="100%" style="stop-color:#d946ef;stop-opacity:1" />
    </linearGradient>
  </defs>
  <rect width="32" height="32" rx="8" fill="url(#gradient)"/>
  <rect x="4" y="4" width="6" height="6" rx="1" fill="white"/>
  <rect x="22" y="4" width="6" height="6" rx="1" fill="white"/>
  <rect x="4" y="22" width="6" height="6" rx="1" fill="white"/>
  <rect x="12" y="6" width="2" height="2" fill="white"/>
  <rect x="16" y="6" width="2" height="2" fill="white"/>
  <rect x="12" y="10" width="2" height="2" fill="white"/>
  <rect x="16" y="10" width="2" height="2" fill="white"/>
  <rect x="14" y="14" width="4" height="4" rx="2" fill="white"/>
  <rect x="12" y="22" width="2" height="2" fill="white"/>
  <rect x="16" y="22" width="2" height="2" fill="white"/>
  <rect x="22" y="12" width="2" height="2" fill="white"/>
  <rect x="26" y="12" width="2" height="2" fill="white"/>
  <rect x="22" y="16" width="2" height="2" fill="white"/>
  <rect x="26" y="16" width="2" height="2" fill="white"/>
</svg>